<svg xmlns="http://www.w3.org/2000/svg" width="512" height="512" viewBox="0 0 512 512" fill="none">
<rect x="124" y="120" width="264" height="308" rx="36" fill="#F7FCFF" stroke="#14355C" stroke-width="18" />
<rect x="156" y="80" width="200" height="56" rx="16" fill="#BFC8D2" stroke="#14355C" stroke-width="18" />
<rect x="160" y="244" width="192" height="84" rx="20" fill="#FFFFFF" stroke="#14355C" stroke-width="18" />
<path d="M220 282 C 220 268, 244 268, 256 286 C 268 268, 292 268, 292 282 C 292 304, 256 324, 256 324 C 256 324, 220 304, 220 282 Z" fill="#F2C94C" stroke="#14355C" stroke-width="18" stroke-linecap="round" stroke-linejoin="round" />
<circle cx="180" cy="220" r="18" fill="#F2C94C" stroke="#14355C" stroke-width="18" />
<circle cx="214" cy="208" r="18" fill="#F2C94C" stroke="#14355C" stroke-width="18" />
<circle cx="260" cy="220" r="18" fill="#F2C94C" stroke="#14355C" stroke-width="18" />
<circle cx="300" cy="230" r="18" fill="#F2C94C" stroke="#14355C" stroke-width="18" />
<circle cx="208" cy="330" r="18" fill="#F2C94C" stroke="#14355C" stroke-width="18" />
<circle cx="260" cy="340" r="18" fill="#F2C94C" stroke="#14355C" stroke-width="18" />
</svg>